<svg xmlns="http://www.w3.org/2000/svg" viewBox="0 0 960 460" font-family="Helvetica, Arial, sans-serif">
  <defs>
    <marker id="arrow" viewBox="0 0 10 10" refX="9" refY="5" markerWidth="7" markerHeight="7" orient="auto-start-reverse">
      <path d="M0,0 L10,5 L0,10 z" fill="#64748b"/>
    </marker>
    <style>
      .box { fill: #ffffff; stroke: #cbd5e1; stroke-width: 1.5; rx: 10; }
      .box-accent { fill: #eff6ff; stroke: #93c5fd; stroke-width: 1.5; rx: 10; }
      .box-warm { fill: #fff7ed; stroke: #fdba74; stroke-width: 1.5; rx: 10; }
      .title { font-size: 15px; font-weight: 700; fill: #0f172a; }
      .sub { font-size: 12px; fill: #475569; }
      .group-title { font-size: 13px; font-weight: 700; fill: #334155; }
      .edge { stroke: #64748b; stroke-width: 1.6; fill: none; marker-end: url(#arrow); }
      .edge-label { font-size: 11px; fill: #64748b; }
    </style>
  </defs>

  <rect width="960" height="460" fill="#ffffff"/>

  <!-- User -->
  <rect x="30" y="200" width="120" height="60" class="box-accent"/>
  <text x="90" y="226" text-anchor="middle" class="title">User</text>
  <text x="90" y="244" text-anchor="middle" class="sub">chat / task</text>

  <!-- React Client -->
  <rect x="210" y="190" width="170" height="80" class="box"/>
  <text x="295" y="220" text-anchor="middle" class="title">React Client</text>
  <text x="295" y="238" text-anchor="middle" class="sub">AI SDK UI</text>
  <text x="295" y="254" text-anchor="middle" class="sub">useChat()</text>

  <!-- API Route -->
  <rect x="440" y="190" width="170" height="80" class="box"/>
  <text x="525" y="220" text-anchor="middle" class="title">API Route</text>
  <text x="525" y="238" text-anchor="middle" class="sub">POST /api/agent</text>
  <text x="525" y="254" text-anchor="middle" class="sub">your Next.js server</text>

  <!-- Bunny Agent SDK -->
  <rect x="670" y="180" width="230" height="100" class="box-warm"/>
  <text x="785" y="212" text-anchor="middle" class="title">Bunny Agent SDK</text>
  <text x="785" y="232" text-anchor="middle" class="sub">agent.stream()</text>
  <text x="785" y="250" text-anchor="middle" class="sub">AI SDK UI stream out</text>

  <!-- Runner group -->
  <rect x="650" y="320" width="130" height="130" class="box" fill="#f8fafc"/>
  <text x="715" y="342" text-anchor="middle" class="group-title">Runner</text>
  <rect x="665" y="352" width="100" height="24" rx="6" fill="#ecfeff" stroke="#67e8f9"/>
  <text x="715" y="368" text-anchor="middle" class="sub">pi</text>
  <rect x="665" y="382" width="100" height="24" rx="6" fill="#ecfeff" stroke="#67e8f9"/>
  <text x="715" y="398" text-anchor="middle" class="sub">claude</text>
  <rect x="665" y="412" width="100" height="24" rx="6" fill="#ecfeff" stroke="#67e8f9"/>
  <text x="715" y="428" text-anchor="middle" class="sub">codex / gemini</text>

  <!-- Sandbox group -->
  <rect x="800" y="320" width="130" height="130" class="box" fill="#f8fafc"/>
  <text x="865" y="342" text-anchor="middle" class="group-title">Sandbox</text>
  <rect x="815" y="352" width="100" height="24" rx="6" fill="#fef2f2" stroke="#fca5a5"/>
  <text x="865" y="368" text-anchor="middle" class="sub">Sandock</text>
  <rect x="815" y="382" width="100" height="24" rx="6" fill="#fef2f2" stroke="#fca5a5"/>
  <text x="865" y="398" text-anchor="middle" class="sub">E2B / Daytona</text>
  <rect x="815" y="412" width="100" height="24" rx="6" fill="#fef2f2" stroke="#fca5a5"/>
  <text x="865" y="428" text-anchor="middle" class="sub">Local</text>

  <!-- Edges -->
  <path class="edge" d="M150,222 L206,222"/>
  <text x="178" y="212" text-anchor="middle" class="edge-label">chat</text>

  <path class="edge" d="M380,222 L436,222"/>
  <text x="408" y="212" text-anchor="middle" class="edge-label">HTTP</text>

  <path class="edge" d="M610,225 L666,225"/>
  <text x="638" y="215" text-anchor="middle" class="edge-label">call</text>

  <path class="edge" d="M755,280 L735,318"/>
  <path class="edge" d="M815,280 L845,318"/>

  <path class="edge" d="M670,240 C520,300 400,300 300,270" />
  <text x="480" y="308" text-anchor="middle" class="edge-label">AI SDK UI stream (response)</text>
</svg>
